<?xml version="1.0" encoding="utf-8"?>
<!-- Generator: Adobe Illustrator 22.1.0, SVG Export Plug-In . SVG Version: 6.00 Build 0)  -->
<svg version="1.1" baseProfile="tiny" id="Layer_1" xmlns="http://www.w3.org/2000/svg" xmlns:xlink="http://www.w3.org/1999/xlink"
	 x="0px" y="0px" viewBox="0 0 272 60" xml:space="preserve">
<g>
	<path fill="#231F20" d="M78.3,29.4h-3.5v-5h12.3v4.9h-3.4L87.1,41l5.6-14.2h4.1l5.6,14.2l3.3-11.8h-3.9v-4.9H114v5h-3.5l-5.9,19.9
		h-4.2l-6-14.7l-6,14.7h-4.2L78.3,29.4z"/>
	<path fill="#231F20" d="M116.7,13.3v-5h9.5V28c2.2-2.1,4.8-4.1,8.2-4.1c2.6,0,4.6,0.9,5.9,2.6c1,1.4,1.6,3.2,1.6,5.4v11.5h3.6v4.9
		h-12.8v-4.9h3.3v-10c0-1.3-0.3-2.2-0.8-2.9c-0.6-0.8-1.5-1.2-2.7-1.2c-2.1,0-4.3,1.2-6.2,2.8v11.3h3.3v4.9h-12.8v-4.9h3.6V13.3
		H116.7z"/>
	<path fill="#231F20" d="M155,38.4c0.8,3.7,3.9,5.4,7.9,5.4c2.9,0,5.9-0.9,8.7-2.5l-0.5,5.4c-2.5,1.5-5.6,2.2-9.1,2.2
		c-7.8,0-13.3-4.9-13.3-12.4c0-6.8,4.8-12.5,12.2-12.5c7.7,0,11.7,5.1,11.7,11.5c0,0.9-0.1,2.1-0.3,3H155z M155,34.2h11.7
		c-0.1-3.3-2.2-5.5-5.8-5.5C158.3,28.7,155.6,30.3,155,34.2z"/>
	<path fill="#231F20" d="M198.5,27.8c0,2-1.6,3.7-3.6,3.7c-1.8,0-3-1-3.5-2.1c-1.7,0.6-3.7,2.5-4.8,4.5v9.4h4.2v4.9h-13.7v-4.9h3.6
		v-14h-3.6v-5h9.3v5.4c2-3.2,4.5-5.9,7.6-5.9C197,23.9,198.5,25.7,198.5,27.8z"/>
	<path fill="#231F20" d="M207.6,38.4c0.8,3.7,3.9,5.4,7.9,5.4c2.9,0,5.9-0.9,8.7-2.5l-0.5,5.4c-2.5,1.5-5.6,2.2-9.1,2.2
		c-7.8,0-13.3-4.9-13.3-12.4c0-6.8,4.8-12.5,12.2-12.5c7.7,0,11.7,5.1,11.7,11.5c0,0.9-0.1,2.1-0.3,3H207.6z M207.5,34.2h11.7
		c-0.1-3.3-2.2-5.5-5.8-5.5C210.8,28.7,208.2,30.3,207.5,34.2z"/>
	<path fill="#231F20" d="M233.6,45h3.9V28.3h-3.9V25h7.7v20h3.9v3.3h-11.7V45z M235.9,16c0-1.6,1.4-3.1,3.1-3.1c1.6,0,3,1.4,3,3.1
		c0,1.6-1.4,3-3,3C237.3,19,235.9,17.7,235.9,16z"/>
	<path fill="#231F20" d="M263.8,32.2c-1.4,0-2.5-1-2.5-2.4c0-0.4,0.1-0.9,0.3-1.3c-0.8-0.5-2.4-0.8-4.1-0.8c-3.2,0-5.1,1.7-5.1,3.4
		c0,2,2.1,2.7,6,3.7c4.7,1.2,8.7,2.5,8.7,7c0,4.4-4.3,7-9.3,7c-3.4,0-6.8-1.1-8.4-2.7c-0.8-0.8-1.3-1.8-1.3-2.9c0-1.4,1-2.6,2.4-2.6
		c1.5,0,2.5,1,2.5,2.4c0,0.5-0.2,0.9-0.4,1.4c0.8,0.6,2.7,1.3,5.2,1.3c3.2,0,5.7-1.4,5.7-3.6c0-2.1-2.2-3-5.5-3.8
		c-5.6-1.4-9.1-2.7-9.1-7.1c0-3.5,3.3-6.7,8.9-6.7c3.1,0,5.9,1,7.3,2.4c0.8,0.8,1.2,1.7,1.2,2.7C266.1,31.1,265.1,32.2,263.8,32.2z"
		/>
</g>
<path fill-rule="evenodd" fill="#231F20" d="M38.2,59L38.2,59C22.3,59,9.5,46.1,9.5,30.2v0c0-15.9,12.9-28.8,28.8-28.8h0
	C54.1,1.4,67,14.3,67,30.2v0C67,46.1,54.1,59,38.2,59z"/>
<path fill-rule="evenodd" fill="#FFFFFF" d="M7.3,26.8l-0.6-2.2c1.7,0,3.2-0.3,4.8-0.3c8.8,0.2,11.9,6.7,16.5,12.9
	c3,3.3,7.7,0.8,7-3.3l12.5-0.1c1.2,4.8,0.2,8.9-2,11.9c-3.9,5.2-12.9,6.7-19.1-0.3c-5.1-5.8-5.4-16-12.5-19.2
	C11.9,25.3,9.1,25.5,7.3,26.8z"/>
<g>
	<path fill="#FFFFFF" d="M39.7,30.5l-1.5-8.8c4.1-0.5,5.5-2.2,5.5-4c0-1.7-1.3-3.1-3.5-3.1c-1.3,0-2.2,0.3-2.8,1
		c0.3,0.3,0.5,0.9,0.5,1.4c0,1.2-0.7,2.1-1.9,2.1c-1.2,0-2.4-1-2.4-2.6c0-0.9,0.3-1.7,0.9-2.5c1.1-1.5,3.3-2.6,5.9-2.5
		c4.3,0,7.1,2.8,7.1,6.3c0,3.1-1.7,6-5.9,6.8L39.7,30.5z"/>
</g>
</svg>
