<?xml version="1.0" standalone="no"?>
<!DOCTYPE svg PUBLIC "-//W3C//DTD SVG 20010904//EN"
 "http://www.w3.org/TR/2001/REC-SVG-20010904/DTD/svg10.dtd">
<svg version="1.0" xmlns="http://www.w3.org/2000/svg"
 width="297.000000pt" height="297.000000pt" viewBox="0 0 297.000000 297.000000"
 preserveAspectRatio="xMidYMid meet">
<metadata>
Created by potrace 1.11, written by Peter Selinger 2001-2013
</metadata>
<g transform="translate(0.000000,297.000000) scale(0.100000,-0.100000)"
fill="#000000" stroke="none">
<path d="M1330 2940 c-493 -69 -905 -361 -1124 -799 -42 -82 -103 -247 -120
-322 l-6 -26 98 5 c136 6 252 -17 367 -73 148 -72 246 -169 434 -431 59 -82
126 -163 149 -181 126 -96 312 -7 312 150 l0 44 311 7 c171 4 315 4 320 -1 16
-16 31 -159 25 -244 -16 -230 -133 -420 -316 -512 -311 -156 -672 -27 -873
311 -26 44 -86 169 -133 279 -128 297 -192 401 -298 485 -91 73 -147 93 -256
93 -71 0 -103 -4 -127 -17 -30 -17 -31 -20 -38 -105 -16 -185 13 -411 76 -590
171 -490 575 -843 1092 -955 147 -31 427 -31 574 0 584 126 1019 561 1145
1145 31 147 31 427 0 574 -126 584 -562 1021 -1140 1143 -111 24 -368 34 -472
20z m482 -491 c122 -26 224 -113 254 -217 32 -109 -6 -259 -84 -335 -40 -39
-122 -84 -171 -93 -30 -6 -32 -11 -78 -155 -25 -82 -48 -147 -50 -145 -5 4
-73 396 -73 419 0 10 8 17 19 17 36 0 146 39 180 64 86 64 100 162 33 237 -50
56 -179 69 -245 26 -24 -16 -24 -18 -11 -56 13 -40 12 -55 -8 -98 -23 -48
-114 -55 -156 -10 -103 110 -4 289 188 341 67 18 132 20 202 5z"/>
</g>
</svg>
